<svg width="17" height="16" viewBox="0 0 17 16" fill="none" xmlns="http://www.w3.org/2000/svg">
<g clip-path="url(#clip0_31_28)">
<path d="M8.52413 15.8802C12.723 15.8802 16.1269 12.4763 16.1269 8.27742C16.1269 4.07854 12.723 0.674683 8.52413 0.674683C4.32525 0.674683 0.921387 4.07854 0.921387 8.27742C0.921387 12.4763 4.32525 15.8802 8.52413 15.8802Z" fill="#627EEA"/>
<path d="M8.76074 2.57532V6.79009L12.3231 8.38191L8.76074 2.57532Z" fill="white" fill-opacity="0.602"/>
<path d="M8.76059 2.57532L5.19775 8.38191L8.76059 6.79009V2.57532Z" fill="white"/>
<path d="M8.76074 11.1132V13.9771L12.3255 9.04529L8.76074 11.1132Z" fill="white" fill-opacity="0.602"/>
<path d="M8.76059 13.9771V11.1128L5.19775 9.04529L8.76059 13.9771Z" fill="white"/>
<path d="M8.76074 10.4503L12.3231 8.38189L8.76074 6.79102V10.4503Z" fill="white" fill-opacity="0.2"/>
<path d="M5.19775 8.38189L8.76059 10.4503V6.79102L5.19775 8.38189Z" fill="white" fill-opacity="0.602"/>
</g>
<defs>
<clipPath id="clip0_31_28">
<rect width="15.2055" height="15.2055" fill="white" transform="translate(0.921387 0.674683)"/>
</clipPath>
</defs>
</svg>
