<svg width="34" height="34" viewBox="0 0 34 34" fill="none" xmlns="http://www.w3.org/2000/svg">
<path d="M11.3334 8.5C13.5877 8.5 15.7497 9.39553 17.3438 10.9896C18.9378 12.5837 19.8334 14.7457 19.8334 17C19.8334 19.2543 18.9378 21.4163 17.3438 23.0104C15.7497 24.6045 13.5877 25.5 11.3334 25.5C9.07903 25.5 6.91703 24.6045 5.32297 23.0104C3.72891 21.4163 2.83337 19.2543 2.83337 17C2.83337 14.7457 3.72891 12.5837 5.32297 10.9896C6.91703 9.39553 9.07903 8.5 11.3334 8.5ZM24.0834 9.91667C26.2084 9.91667 27.625 13.0886 27.625 17C27.625 20.9114 26.2084 24.0833 24.0834 24.0833C21.9584 24.0833 20.5417 20.9114 20.5417 17C20.5417 13.0886 21.9584 9.91667 24.0834 9.91667ZM29.75 10.625C30.2884 10.625 30.7587 11.7966 30.9967 13.8068L31.0633 14.4344L31.0902 14.7673L31.1327 15.4672L31.1469 15.8341L31.1639 16.6005L31.1667 17L31.1639 17.3995L31.1469 18.1659L31.1327 18.5343L31.0902 19.2327L31.0619 19.5656L30.9981 20.1932C30.7587 22.2048 30.2898 23.375 29.75 23.375C29.2117 23.375 28.7414 22.2034 28.5034 20.1932L28.4368 19.5656C28.427 19.4547 28.4181 19.3437 28.4099 19.2327L28.3674 18.5328C28.3619 18.4106 28.3572 18.2882 28.3532 18.1659L28.3362 17.3995V16.6005L28.3532 15.8341L28.3674 15.4657L28.4099 14.7673L28.4382 14.4344L28.502 13.8068C28.7414 11.7952 29.2103 10.625 29.75 10.625Z" fill="#F8F8F8"/>
</svg>
