<svg width="15" height="15" viewBox="0 0 15 15" fill="none" xmlns="http://www.w3.org/2000/svg">
<path d="M2.42489 2.38229C2.10783 0.552941 4.23767 -0.683607 5.66915 0.498728L7.99358 2.4186C8.44363 2.79032 9.03362 2.94688 9.60876 2.8472L12.5793 2.33237C14.4086 2.01531 15.6452 4.14515 14.4628 5.57663L12.5429 7.90106C12.1712 8.35111 12.0147 8.9411 12.1144 9.51624L12.6292 12.4867C12.9462 14.3161 10.8164 15.5526 9.38492 14.3703L7.06049 12.4504C6.61044 12.0787 6.02045 11.9221 5.44531 12.0218L2.47481 12.5367C0.645464 12.8537 -0.591084 10.7239 0.591251 9.2924L2.51112 6.96797C2.88285 6.51792 3.0394 5.92793 2.93972 5.35279L2.42489 2.38229Z" fill="#B44201"/>
</svg>
