<svg width="34" height="34" viewBox="0 0 34 34" fill="none" xmlns="http://www.w3.org/2000/svg">
<path d="M17 2.8335C9.18004 2.8335 2.83337 9.18016 2.83337 17.0002C2.83337 24.8202 9.18004 31.1668 17 31.1668C24.82 31.1668 31.1667 24.8202 31.1667 17.0002C31.1667 9.18016 24.82 2.8335 17 2.8335ZM23.5734 12.4668C23.3609 14.7052 22.44 20.1452 21.9725 22.6527C21.7742 23.7152 21.3775 24.0693 21.0092 24.1118C20.1875 24.1827 19.5642 23.5735 18.7709 23.0493C17.5242 22.2277 16.8159 21.7177 15.6117 20.9243C14.2092 20.0035 15.1159 19.4935 15.9234 18.6718C16.1359 18.4593 19.7625 15.1585 19.8334 14.861C19.8432 14.8159 19.8419 14.7692 19.8296 14.7247C19.8172 14.6803 19.7942 14.6395 19.7625 14.606C19.6775 14.5352 19.5642 14.5635 19.465 14.5777C19.3375 14.606 17.3542 15.9235 13.4867 18.5302C12.92 18.9127 12.41 19.111 11.9567 19.0968C11.4467 19.0827 10.4834 18.8135 9.76087 18.5727C8.86837 18.2893 8.17421 18.1335 8.23087 17.6377C8.25921 17.3827 8.61337 17.1277 9.27921 16.8585C13.4159 15.0593 16.1642 13.8693 17.5384 13.3027C21.4767 11.6593 22.2842 11.376 22.8225 11.376C22.9359 11.376 23.205 11.4043 23.375 11.546C23.5167 11.6593 23.5592 11.8152 23.5734 11.9285C23.5592 12.0135 23.5875 12.2685 23.5734 12.4668Z" fill="#F8F8F8"/>
</svg>
