<svg width="17" height="16" viewBox="0 0 17 16" fill="none" xmlns="http://www.w3.org/2000/svg">
<g clip-path="url(#clip0_31_47)">
<path d="M8.52413 15.6404C12.723 15.6404 16.1269 12.2366 16.1269 8.03768C16.1269 3.8388 12.723 0.434937 8.52413 0.434937C4.32525 0.434937 0.921387 3.8388 0.921387 8.03768C0.921387 12.2366 4.32525 15.6404 8.52413 15.6404Z" fill="#3C3D3F"/>
<path d="M10.435 9.0469C10.435 8.03763 9.82676 7.69171 8.61033 7.54725C7.74171 7.43179 7.56828 7.20133 7.56828 6.79743C7.56828 6.39354 7.85813 6.1341 8.43689 6.1341C8.95815 6.1341 9.24801 6.30706 9.39246 6.73994C9.40751 6.7818 9.43503 6.81804 9.4713 6.84378C9.50758 6.86952 9.55087 6.88353 9.59536 6.88392H10.0586C10.0854 6.88463 10.112 6.8799 10.1369 6.87002C10.1618 6.86013 10.1844 6.8453 10.2034 6.82642C10.2223 6.80753 10.2373 6.78499 10.2473 6.76016C10.2573 6.73533 10.2621 6.70873 10.2615 6.68197V6.65346C10.2049 6.34027 10.0465 6.05455 9.81077 5.84068C9.57507 5.62682 9.27535 5.49677 8.95815 5.47076V4.77891C8.95815 4.66344 8.87119 4.57696 8.72674 4.54797H8.29196C8.17649 4.54797 8.08954 4.63445 8.06055 4.77891V5.44225C7.19146 5.55724 6.64169 6.1341 6.64169 6.85541C6.64169 7.8067 7.22045 8.18161 8.43689 8.32606C9.24801 8.47004 9.5084 8.64347 9.5084 9.10487C9.5084 9.56578 9.10308 9.8832 8.55283 9.8832C7.79968 9.8832 7.53929 9.56626 7.45233 9.13338C7.42382 9.01838 7.33639 8.96041 7.24944 8.96041H6.75716C6.73044 8.95976 6.70386 8.96454 6.67904 8.97445C6.65422 8.98437 6.63167 8.99921 6.61275 9.01809C6.59383 9.03696 6.57893 9.05948 6.56896 9.08428C6.55899 9.10908 6.55415 9.13564 6.55474 9.16236V9.19087C6.6702 9.91218 7.13397 10.4311 8.08954 10.5755V11.2678C8.08954 11.3828 8.17649 11.4698 8.32095 11.4983H8.75573C8.8712 11.4983 8.95815 11.4118 8.98714 11.2678V10.575C9.85623 10.4311 10.435 9.82522 10.435 9.04642V9.0469Z" fill="white"/>
<path d="M7.04709 12.0752C4.78812 11.2674 3.62966 8.75847 4.46976 6.538C4.90406 5.32631 5.85963 4.404 7.04709 3.97112C7.16303 3.91363 7.22052 3.82715 7.22052 3.68269V3.2788C7.22052 3.16381 7.16303 3.07733 7.04709 3.04834C7.0181 3.04834 6.96013 3.04834 6.93114 3.07685C6.27941 3.28038 5.67438 3.61081 5.15088 4.04913C4.62738 4.48745 4.19575 5.025 3.88085 5.63081C3.56595 6.23663 3.374 6.89875 3.31605 7.57906C3.25809 8.25937 3.33528 8.94442 3.54317 9.59477C4.06396 11.2104 5.30939 12.4506 6.93114 12.9694C7.04709 13.0269 7.16303 12.9694 7.19154 12.854C7.22052 12.8255 7.22052 12.796 7.22052 12.7385V12.3346C7.22052 12.2481 7.13404 12.1331 7.04709 12.0752ZM10.1167 3.07733C10.0008 3.01935 9.88481 3.07733 9.8563 3.19232C9.82731 3.2213 9.82731 3.25029 9.82731 3.30778V3.71168C9.82731 3.82715 9.91379 3.94214 10.0008 4.00011C12.2597 4.8079 13.4182 7.3168 12.5781 9.53728C12.1438 10.749 11.1882 11.6713 10.0008 12.1042C9.88481 12.1616 9.82731 12.2481 9.82731 12.3926V12.7965C9.82731 12.9115 9.88481 12.998 10.0008 13.0269C10.0297 13.0269 10.0877 13.0269 10.1167 12.9984C10.7684 12.7949 11.3735 12.4645 11.897 12.0261C12.4205 11.5878 12.8521 11.0503 13.167 10.4445C13.4819 9.83865 13.6738 9.17652 13.7318 8.49621C13.7897 7.81591 13.7126 7.13085 13.5047 6.4805C12.9839 4.83641 11.7095 3.59621 10.1167 3.07733Z" fill="white"/>
</g>
<defs>
<clipPath id="clip0_31_47">
<rect width="15.2055" height="15.2055" fill="white" transform="translate(0.921387 0.434937)"/>
</clipPath>
</defs>
</svg>
